<?xml version="1.0" encoding="UTF-8"?>
<svg version="1.1" xmlns="http://www.w3.org/2000/svg" width="40" height="40" viewBox="64 64 384 384">
<path d="M0 0 C0.65807144 -0.0065712 1.31614288 -0.0131424 1.99415588 -0.01991272 C4.15178589 -0.03946609 6.30934664 -0.0512726 8.46704102 -0.0612793 C9.21293047 -0.06535482 9.95881992 -0.06943035 10.72731209 -0.07362938 C14.68148639 -0.09442164 18.63562678 -0.10874839 22.58984375 -0.11816406 C26.62729151 -0.12916803 30.66417898 -0.1635171 34.70143032 -0.20333576 C37.84604246 -0.22977819 40.99052709 -0.23788037 44.13524055 -0.24144554 C45.62086805 -0.24624668 47.10649247 -0.2576695 48.59200859 -0.27648354 C62.04177981 -0.43613582 75.3116485 1.43032242 87.34594727 7.86450195 C88.00272461 8.20481445 88.65950195 8.54512695 89.33618164 8.89575195 C95.54661758 12.23469601 100.8591151 16.39414887 106.03344727 21.17700195 C106.71407227 21.77770508 107.39469727 22.3784082 108.09594727 22.99731445 C128.91503617 42.38928839 144.27764364 74.86479589 145.36938477 103.2434082 C145.67573295 125.0240981 142.76761808 145.85742119 128.16625977 163.1105957 C102.57543908 187.90463259 62.73858269 198.74335502 28.03344727 199.42700195 C-2.49172449 198.85843065 -31.63796646 190.12530547 -57.59155273 174.05200195 C-58.54976929 173.45887207 -58.54976929 173.45887207 -59.52734375 172.85375977 C-74.97791425 162.97809542 -83.66910649 148.18003309 -87.83251953 130.3918457 C-91.03906695 114.14676629 -90.26869268 96.8364277 -84.96655273 81.17700195 C-84.52575519 79.78268972 -84.0856752 78.38815047 -83.64624023 76.9934082 C-74.3559794 48.42966096 -57.17831441 21.12444283 -29.96655273 6.92700195 C-20.2280914 2.23903918 -10.83010972 0.09037072 0 0 Z M-44.09155273 39.36450195 C-60.80953662 59.11901761 -74.81361474 88.88584283 -72.96655273 115.17700195 C-71.66987182 129.2943871 -67.8045503 144.16595153 -56.96264648 153.9934082 C-27.90044971 175.77742004 11.39697731 185.35149243 47.19482422 180.40844727 C50.84368817 179.80382334 54.43743496 179.03985422 58.03344727 178.17700195 C58.80398438 177.99427734 59.57452148 177.81155273 60.3684082 177.62329102 C80.97405672 172.53248374 108.31158685 163.00111559 120.03344727 144.17700195 C129.20033376 128.93234414 131.0167925 110.36684822 127.03344727 93.17700195 C120.12022458 66.58809939 105.98036046 39.04782541 81.65844727 24.60668945 C69.82110367 18.15956482 59.273449 16.86125907 45.88500977 16.8762207 C44.42206706 16.87232406 42.95912548 16.86798743 41.4961853 16.86323547 C38.44183675 16.85581057 35.38760386 16.85603715 32.33325195 16.86132812 C28.447892 16.86711641 24.56300975 16.85018935 20.67772865 16.82698345 C17.65940655 16.8121451 14.64119682 16.81138804 11.6228447 16.81449318 C10.19172597 16.81398498 8.7606001 16.80884309 7.32951736 16.79868126 C-13.65454114 16.66793904 -29.66892382 24.02977002 -44.09155273 39.36450195 Z " fill="#000000" transform="translate(227.966552734375,224.822998046875)"/>
<path d="M0 0 C2.46420416 2.15804546 4.75532706 4.38848349 7.015625 6.7578125 C7.65886719 7.39332031 8.30210937 8.02882813 8.96484375 8.68359375 C19.32765459 19.5409422 24.07168359 35.08951963 24.453125 49.8828125 C23.78470723 68.30607741 16.82690225 84.35259261 3.51953125 97.16015625 C-10.58251537 109.46107064 -27.37515126 114.05487046 -45.76220703 112.96044922 C-61.4267871 111.53201575 -76.57248667 103.5041081 -86.984375 91.7578125 C-98.22768891 77.10716348 -103.53181269 61.30772175 -101.984375 42.7578125 C-99.18118749 24.43377109 -90.72667382 10.71222496 -76.609375 -1.1171875 C-53.47352016 -17.93580538 -22.59370763 -16.97485364 0 0 Z M-74.984375 20.7578125 C-82.51979748 31.01278595 -86.54134291 42.98717686 -84.984375 55.7578125 C-82.09107443 69.25988184 -75.83564203 80.26295599 -64.63671875 88.48046875 C-53.59115014 95.60494803 -41.4672951 97.57231202 -28.5546875 95.1015625 C-20.94959349 93.02581919 -15.03534045 89.76993964 -8.984375 84.7578125 C-8.34886719 84.25765625 -7.71335937 83.7575 -7.05859375 83.2421875 C1.04355041 76.1281097 6.33272512 63.86408698 7.2265625 53.25390625 C7.71191744 40.13065525 3.47601326 28.92070307 -4.64453125 18.66015625 C-13.57500908 9.05408671 -25.7479001 4.39481077 -38.609375 3.5078125 C-52.82339781 3.75194648 -65.5877593 10.35216424 -74.984375 20.7578125 Z " fill="#000000" transform="translate(294.984375,101.2421875)"/>
</svg>
