<?xml version="1.0" encoding="UTF-8" standalone="no"?>
<svg
   version="1.1"
   id="Layer_1"
   x="0px"
   y="0px"
   viewBox="-5.4 -0.7 50 50"
   xml:space="preserve"
   width="20"
   height="16"
   xmlns="http://www.w3.org/2000/svg"><g
     id="g4"
     transform="translate(-0.87615886,-1.1213991)"><path
       d="m 30.422121,49.837684 c -0.78,-0.23 -1.58,-1.16 -1.75,-2.05 -0.11,-0.58 0.02,-0.98 0.85,-2.59 3.36,-6.5 4.82,-12.48 4.82,-19.73 0,-7.01 -1.29,-12.47 -4.5,-19.0099996 -0.69,-1.4 -1.25,-2.71 -1.25,-2.9 0.299567,-2.045001 2.732032,-3.17731004 4.22,-1.89 0.27,0.25 0.96,1.39 1.54,2.53 2.3,4.51 3.87,9.4599996 4.65,14.6099996 0.48,3.19 0.58,9.23 0.19,12.15 -0.71,5.38 -2.13,10.19 -4.41,14.89 -1.38,2.84 -2.24,4.01 -2.96,4.01 -0.14,0 -0.38,0.04 -0.52,0.08 -0.14,0.04 -0.54,0 -0.88,-0.1 z m -9.35,-4.89 c -1.2,-0.35 -2.07,-1.83 -1.72,-2.93 0.08,-0.27 0.65,-1.5 1.26,-2.74 2.57,-5.25 3.64,-10.87 3.12,-16.39 -0.43,-4.54 -1.24,-7.4 -3.29,-11.58 -1.37,-2.8099996 -1.44,-3.2399996 -0.64,-4.3799996 0.76,-1.08 2.66,-1.25 3.65,-0.34 0.69,0.63 2.84,5.1199996 3.67,7.6599996 2.74,8.4 2.32,17.43 -1.19,25.68 -1.81,4.23 -3.08,5.54 -4.86,5.02 z m -9.64,-4.96 c -0.74,-0.33 -1.38,-1.12 -1.5599997,-1.91 -0.11,-0.48 0.08,-1.02 0.9599997,-2.8 3.24,-6.56 3.27,-12.87 0.11,-19.28 -1.3899997,-2.81 -1.4199997,-3.37 -0.25,-4.48 0.58,-0.55 0.83,-0.64 1.64,-0.64 1.37,0 2.08,0.69 3.3,3.2 1.88,3.86 2.65,7.21 2.64,11.5 -0.01,4.41 -0.73,7.44 -2.73,11.51 -1.15,2.33 -1.72,2.95 -2.87,3.1 -0.35,0.03 -0.91,-0.05 -1.24,-0.2 z m -8.9999997,-4.62 c -0.59,-0.24 -1.26,-1.04 -1.46000004,-1.74 -0.22,-0.78 -0.04,-1.4 0.84000004,-2.85 1.14,-1.87 1.4,-2.87 1.4,-5.31 0,-2.44 -0.26,-3.45 -1.4,-5.31 -0.39,-0.63 -0.77,-1.39 -0.86000004,-1.69 -0.37,-1.23 0.66000004,-2.74 2.04000004,-3 1.17,-0.22 1.97,0.3 3.05,1.98 3.11,4.86 3.11,11.34 0,16.16 -1.1,1.69 -2.32,2.29 -3.61,1.76 z"
       id="path2"
       style="fill:#ffffff" /></g></svg>
