<svg
   width="256"
   height="256"
   viewBox="0 0 256 256"
   version="1.1"
   id="svg5"
   xmlns="http://www.w3.org/2000/svg">
  <g style="fill:#b3b3b3;fill-rule:evenodd;stroke-width:1.49946">
    <path d="M 136.43359,0 166.4707,33.417746 135.67188,64.254217 A 63.999996,64.078216 0 0 1 192,127.84356 a 63.999996,64.078216 0 0 1 -2.40625,17.39428 l 13.54687,44.53679 42.85743,-12.30408 A 127.99999,128.15643 0 0 0 256,127.84356 127.99999,128.15643 0 0 0 136.43359,0 Z M 112.04492,0.82913713 A 127.99999,128.15643 0 0 0 0,127.84356 127.99999,128.15643 0 0 0 13.279297,184.22489 l 13.8125,-42.52458 42.117186,11.29896 A 63.999996,64.078216 0 0 1 64,127.84356 63.999996,64.078216 0 0 1 111.92969,66.086531 L 144,31.726229 Z M 36.863281,162.03177 26.173828,204.95918 A 127.99999,128.15643 0 0 0 128,256 127.99999,128.15643 0 0 0 234.41016,199.06917 l -43.9668,9.34344 -11.27734,-42.13737 A 63.999996,64.078216 0 0 1 128,191.92178 63.999996,64.078216 0 0 1 82.275392,172.57981 Z" />
  </g>
</svg>
