<?xml version="1.0" encoding="UTF-8"?>
<svg id="Layer_1" data-name="Layer 1" xmlns="http://www.w3.org/2000/svg" width="289.57mm" height="44.45mm" viewBox="0 0 820.82 126.01">
  <defs>
    <style>
      .cls-1 {
        fill: none;
      }

      .cls-2 {
        fill: #0069b0;
      }

      .cls-3 {
        fill: #fff;
      }

      .cls-4 {
        fill: #6d6e71;
      }
    </style>
  </defs>
  <g id="Logo">
    <rect class="cls-3" x=".62" y="1.97" width="121.21" height="121.21"/>
    <path class="cls-2" d="m71.2,72.54c-.09,5.4-.16,10.54-.07,15.92.99-.48,1.75-.8,2.46-1.21,13.55-7.83,27.1-15.67,40.64-23.51.36-.21.68-.46,1.08-.73-.27-.75-.92-.94-1.43-1.23-3.85-2.25-7.72-4.47-11.58-6.7-9.69-5.6-19.37-11.21-29.06-16.81-.59-.34-1.13-.82-2.02-.87-.23,1.11-.1,2.16-.12,3.2-.02.99,0,1.98,0,2.98,0,1.06,0,2.13,0,3.19,0,.99.02,1.98.02,2.98,0,1.05,0,2.11,0,3.25-.46.08-.86.2-1.27.21-1.77.02-3.54.04-5.31,0-4.26-.1-8.22-1.34-12.02-3.17-5.22-2.51-9.76-6-13.97-9.94-4.67-4.37-8.78-9.24-12.58-14.37-5.2-7.02-9.74-14.44-13.74-22.2-.19-.36-.33-.74-.45-1.02.24-.58.64-.49.97-.5.57-.03,1.13-.01,1.7-.01,34.92,0,69.84,0,104.77,0h2.62c.08.53.18.93.2,1.33.03.49,0,.99,0,1.49,0,38.61,0,77.23,0,115.84,0,.64.02,1.28-.02,1.91-.05.79-.42,1.16-1.18,1.22-.49.04-.99.02-1.49.02-35.13,0-70.27,0-105.4,0-.69,0-1.38-.04-2.24-.07.17-.55.22-.96.41-1.31,6.81-12.99,14.73-25.19,25.21-35.57,4.35-4.31,9.12-8.07,14.61-10.84,4.63-2.34,9.5-3.64,14.72-3.49,1.4.04,2.81.03,4.53.05Z"/>
    <path class="cls-2" d="m36.4,62.91c-.68.52-1.22.96-1.79,1.35-1.48,1.01-2.94,2.03-4.26,3.25-.3.28-.73.43-1.05.69-.43.34-.84.73-1.24,1.11-.67.62-1.28,1.33-2,1.87-2.05,1.54-3.83,3.32-5.41,5.34-.86,1.11-1.96,2.02-2.89,3.08-.69.79-1.27,1.69-1.94,2.5-1.29,1.56-2.7,3.04-3.92,4.65-1.59,2.11-3.03,4.33-4.56,6.48-2.2,3.08-4.1,6.35-6.09,9.57-.24.39-.54.73-.84,1.14-.16-.24-.29-.35-.29-.45.01-26.99.03-53.97.06-80.96,0-.11.13-.23.21-.35.64-.02.74.57.98.95,1.61,2.5,3.15,5.05,4.8,7.52,4.64,6.97,9.76,13.56,15.58,19.6,3.99,4.14,8.29,7.93,12.96,11.28.4.29.81.57,1.21.87.11.08.19.2.48.51Z"/>
  </g>
  <g id="UnifiedFX">
    <path class="cls-4" d="m765.65,77.28c-.24.67-17.87,34.22-23.19,44.15-.4.75-.82,1.48-1.19,2.15-1.71.24-30.04.28-32.31.05.13-.4.18-.81.38-1.14,1.19-1.93,2.39-3.85,3.61-5.76,5.03-7.88,10.07-15.76,15.1-23.64,5.9-9.26,11.8-18.52,17.7-27.78.42-.65.82-1.31,1.29-2.07-.36-.7-.68-1.4-1.06-2.06-5.39-9.24-10.8-18.46-16.18-27.7-5.28-9.05-10.53-18.12-15.82-27.17-.37-.63-.63-1.38-1.46-1.96-.19,1.09-.1,1.99-.11,2.88-.02.99,0,1.98,0,2.98v8.5c0,.99,0,1.98,0,2.98,0,.91-.03,1.82-.04,2.84-.5.09-.89.2-1.29.22-.64.04-1.27.01-1.91.01-12.32,0-24.65,0-36.97,0-.77,0-1.55-.1-2.41.16-.06.35-.17.68-.17,1.01,0,9.07,0,18.14,0,27.21,0,.34.06.69.1,1.07.8.39,34.7.25,37.4.26.55,0,1.1.07,1.74.11.06.44.13.78.14,1.12.19,5.96.08,19.07-.18,20.82-.71.42-37.47.23-38.18.26-.27.01-.53.12-.8.19-.36.87-.21,1.73-.21,2.56,0,13.89,0,27.77,0,41.66,0,.77-.04,1.53-.06,2.4-.51.07-.92.18-1.32.18-8.22,0-16.43,0-24.65,0-.35,0-.7-.05-1.16-.08-.08-.41-.2-.8-.23-1.2-.04-.56-.01-1.13-.01-1.7,0-38.47,0-76.94,0-115.41,0-.84,0-1.69,0-2.61.52-.1.91-.22,1.32-.25.56-.04,1.13-.01,1.7-.01,32.3,0,64.6,0,96.9,0,.42,0,3.08,0,3.08,0,1.25,2.78,20.21,45.47,20.51,46.39.29-.43,23.37-45.57,23.73-46.18,1.76-.25,28.09-.27,29.99-.03.31.63-.14,1.08-.41,1.55-2.4,4.01-4.81,8.01-7.23,12.01-4.73,7.82-9.45,15.64-14.18,23.45-4.29,7.09-8.59,14.17-12.88,21.26-.33.54-.63,1.1-.98,1.72,3.02,5.16,6.19,10.19,9.28,15.26,3.09,5.08,6.21,10.15,9.31,15.22,3.07,5.01,6.14,10.02,9.2,15.04,3.09,5.06,6.22,10.1,9.2,15.07-.11.27-.12.35-.17.39-.05.04-.13.07-.2.07-.56.03-1.13.06-1.69.06-9.98,0-19.97,0-30.06,0-.9-1.65-1.78-3.25-2.64-4.86"/>
    <path class="cls-4" d="m604.29,50.29c.06-.03.1-.06.14-.11.04-.05.05-.13.06-.2.01-.07.02-.14.03-.21,0-.14,0-.28.01-.42,0-.07,0-.14,0-.21,0-.07,0-.14,0-.21,0-.14,0-.28,0-.43,0-14.81,0-29.61,0-44.42,0-.14,0-.28,0-.43,0-.07,0-.14,0-.21,0-.07,0-.14,0-.21,0-.07,0-.14,0-.21,0-.07.01-.14.03-.21.01-.07.02-.14.04-.21.02-.06.07-.12.19-.34.21-.04.54-.16.86-.16,7.72,0,15.44,0,23.16,0,.27,0,.55.06.94.11.06.42.15.82.18,1.22.03.49,0,.99,0,1.49,0,38.68,0,77.36,0,116.04,0,.84-.03,1.68-.05,2.62-.42.07-.75.18-1.08.18-7.72,0-15.44,0-23.16,0-.28,0-.56-.07-.88-.12-.47-1.1-.21-2.24-.25-3.35-.04-1.2,0-2.41,0-3.61,0-1.13,0-2.26,0-3.34-.68-.32-.85.19-1.07.49-1.77,2.42-3.78,4.6-6.2,6.37-3.6,2.63-7.6,4.3-12.02,5.05-6.05,1.02-12.01.71-17.83-1.2-7.38-2.42-12.91-7.22-16.85-13.86-3.19-5.39-4.84-11.3-5.54-17.49-.1-.83-.2-1.67-.29-2.36-.23-.15-.28-.19-.34-.22-.06-.03-.13-.07-.2-.07-17.42,0-34.85,0-52.27.01-.21,0-.42.05-.63.09-.06.01-.12.08-.17.12-.06.12-.19.24-.18.36.27,5.2,2.16,9.62,6.34,12.9,1.92,1.51,4.11,2.49,6.46,3.13,4.22,1.14,8.52,1.44,12.85,1.1,5.4-.41,10.66-1.47,15.61-3.75,1.54-.71,3.02-1.53,4.65-2.35.1.29.26.53.26.77.01,5.53.01,11.05,0,16.58,0,.21-.07.42-.11.67-1.16.95-2.59,1.41-3.95,1.96-4.55,1.85-9.29,2.94-14.18,3.5-4.58.52-9.17.83-13.77.65-7-.28-13.79-1.48-20.07-4.78-6.88-3.61-11.97-8.95-15.32-15.95-2.77-5.79-3.86-11.96-4.17-18.31-.22-4.41.06-8.79.84-13.12,2.61-14.52,10.59-24.93,24.12-30.94,3.65-1.62,7.52-2.43,11.49-2.85,4.84-.51,9.62-.3,14.38.61,10.05,1.92,17.69,7.29,22.76,16.2,2.44,4.28,3.98,8.91,4.57,13.81.38,3.13.64,6.27.98,9.59.2-1.72.38-3.26.54-4.8.51-4.83,1.73-9.51,3.73-13.9,3.72-8.16,9.35-14.64,17.63-18.52,5.17-2.42,10.63-3.39,16.31-3.27,3.27.07,6.48.47,9.61,1.53,4.59,1.56,8.28,4.24,10.95,8.31.19.29.41.57.63.85.03.03.15.07.22.04Zm.84,31.59c0-1.87,0-3.15,0-4.42-.01-2.5-.4-4.94-1.29-7.28-2.09-5.51-5.76-9.33-11.66-10.71-1.75-.41-3.51-.44-5.28-.34-3.27.19-6.23,1.26-8.75,3.39-3.01,2.54-4.97,5.79-6.05,9.54-1.98,6.86-2.23,13.79-.6,20.77.34,1.46.8,2.87,1.47,4.19,1.87,3.72,4.48,6.67,8.49,8.21,2.92,1.12,5.95,1.38,8.98.88,2.52-.41,4.95-1.27,6.91-3.04,3.69-3.33,6.06-7.42,7.07-12.3.65-3.14.81-6.31.71-8.9Zm-84.6-7.65c.12-.38.24-.58.24-.78-.02-2.63-.37-5.23-1.18-7.73-1.25-3.84-3.61-6.7-7.51-8.08-1.89-.67-3.86-.79-5.85-.81-3.45-.04-6.32,1.28-8.8,3.58-2.55,2.36-4.35,5.2-5.5,8.46-.58,1.65-1.05,3.35-1.25,5.03.23.17.34.31.46.31,9.76.01,19.51,0,29.39,0Z"/>
    <path class="cls-4" d="m136.07,2.51c9,0,17.7,0,26.41,0,.26,0,.53.11.92.19.03.74.09,1.43.09,2.12,0,4.96,0,9.92,0,14.88,0,17.57,0,35.14,0,52.71,0,3.83.13,7.65.95,11.41.69,3.12,1.66,6.14,3.31,8.92,3.24,5.44,8.11,8.36,14.28,9.21,2.89.4,5.8.41,8.69.01,6.61-.92,11.68-4.12,14.71-10.2.72-1.45,1.29-2.99,1.77-4.54,1.24-3.95,1.64-8.03,1.64-12.16-.02-23.31-.01-46.62,0-69.92,0-.83-.22-1.7.26-2.47,1.89-.25,25.24-.23,27.09.04.06.36.14.75.17,1.16.03.42,0,.85,0,1.27,0,22.17,0,44.35,0,66.52,0,6.68-.64,13.29-2.16,19.8-1.19,5.07-3.04,9.88-5.72,14.35-4.62,7.7-11.25,12.99-19.58,16.23-6.27,2.44-12.81,3.56-19.51,3.77-2.62.08-5.24.09-7.86,0-6.48-.23-12.8-1.31-18.87-3.69-9.85-3.85-16.94-10.61-21.3-20.23-2.48-5.46-3.89-11.22-4.62-17.16-.62-5.07-.77-10.16-.76-15.26.03-21.4.01-42.79.02-64.19,0-.84.03-1.67.05-2.79Z"/>
    <path class="cls-4" d="m328.56,123.49c-1.97.38-12.61.49-23.8.28-.47,0-.95-.09-1.55-.16-.03-.86-.07-1.63-.07-2.39,0-14.45,0-28.9,0-43.35,0-2.34-.06-4.68-.56-6.98-.43-2.01-1.02-3.97-2.04-5.79-1.69-3.02-4.2-4.96-7.57-5.68-3.34-.72-6.62-.48-9.72,1.09-3.31,1.68-5.49,4.39-7.01,7.7-1.26,2.75-1.71,5.68-1.71,8.68,0,14.73,0,29.47,0,44.2v2.42c-.51.1-.9.24-1.29.24-7.65.01-15.3.01-22.95,0-.34,0-.67-.08-.88-.1-.16-.18-.22-.23-.25-.29-.03-.06-.05-.13-.05-.2-.02-26.35-.04-52.7-.05-79.05,0-.57,0-1.13.02-1.7,0-.14.04-.28.08-.41.02-.06.09-.1.28-.3.33-.03.81-.09,1.28-.1,11.13-.19,21.72-.1,23.65.22.34,1.99.11,4.03.15,6.06.04,2.03,0,4.07,0,6.08.63.14.73-.27.91-.54,1.36-1.99,2.82-3.89,4.55-5.59,4.5-4.43,9.88-7,16.1-7.93,4.47-.67,8.91-.46,13.29.55,6.4,1.47,11.33,5,14.55,10.79,2.34,4.21,3.6,8.76,4.13,13.52.35,3.17.52,6.35.51,9.54-.03,15.58-.01,31.17-.01,46.75,0,.77,0,1.54,0,2.41Z"/>
    <path class="cls-4" d="m368.64,41.6c2.36,0,4.55,0,6.74,0,2.18,0,4.36.02,6.65-.02.07-.57.17-.97.17-1.38.02-2.2.03-4.39,0-6.59-.04-3.2.21-6.37.78-9.51.84-4.62,2.82-8.73,5.73-12.4,4.61-5.8,10.69-9.22,17.87-10.63,6.3-1.24,12.67-1.22,19.02-.21,1.17.19,2.32.58,3.41.85.29,1.9.29,17.7,0,19.55-.4-.07-.8-.11-1.19-.2-1.72-.41-3.42-.93-5.15-1.24-2.17-.39-4.37-.34-6.54.17-4.48,1.05-7.4,4.21-8.09,8.77-.12.77-.21,1.54-.3,2.32-.16,1.35-.12,8.62.04,10.19.52.51,1.19.32,1.8.32,4.82.02,9.63,0,14.45.01.69,0,1.39.05,1.94.08.19.18.25.22.28.28.04.06.06.13.06.2.03,5.31.05,10.62.08,15.93,0,.63,0,1.27,0,1.78-.61.69-1.29.5-1.9.5-4.82.02-9.63,0-14.45.01-.7,0-1.4.04-2.2.06-.07.48-.17.88-.19,1.28-.03.57,0,1.13,0,1.7,0,19.2,0,38.4,0,57.59,0,.83-.04,1.67-.07,2.62-2.87.27-5.61.1-8.35.13-2.83.03-5.67.01-8.5,0-2.75,0-5.5.04-8.17-.04-.52-.88-.32-1.68-.32-2.44-.01-13.25,0-26.49,0-39.74,0-6.23,0-12.47,0-18.7,0-.76.15-1.55-.3-2.4-1.45-.15-2.93-.05-4.4-.07-1.42-.02-2.83,0-4.25,0s-2.96,0-4.52,0c-.1-.45-.23-.77-.23-1.1-.01-5.53-.01-11.05,0-16.58,0-.27.07-.54.15-1.1Z"/>
    <path class="cls-4" d="m338.89,123.64c-.27-2.33-.23-80.11.04-81.87.29-.05.62-.16.96-.16,7.65,0,15.3,0,22.95,0,.28,0,.55.06.92.11.12.41.3.79.33,1.19.06.63.02,1.27.02,1.91,0,25.37,0,50.73,0,76.1,0,.84-.03,1.68-.05,2.64-.41.08-.74.2-1.06.2-7.72.01-15.44,0-23.16,0-.27,0-.55-.07-.94-.12Z"/>
    <path class="cls-4" d="m433.78,123.64c-.24-1.84-.29-79.35-.07-81.81.36-.07.75-.21,1.14-.21,7.5-.01,15-.01,22.51,0,.21,0,.43,0,.64.02.53.06.9.4.96.95.05.49.04.99.04,1.48,0,25.84,0,51.68,0,77.51,0,.63-.05,1.25-.08,1.99-.4.07-.73.19-1.06.19-7.71,0-15.43,0-23.14,0-.28,0-.55-.07-.93-.13Z"/>
    <path class="cls-4" d="m446.72,28.57c-2.95.13-5.68-.46-8.24-1.84-7.16-3.89-9.05-13.68-3.45-19.83,1.21-1.33,2.69-2.33,4.33-3.01,4.81-2,9.66-2.07,14.42.13,4.4,2.04,6.93,5.52,7.31,10.38.38,4.93-1.54,8.83-5.59,11.66-2.65,1.85-5.61,2.63-8.77,2.51Z"/>
    <path class="cls-4" d="m351.66,28.73c-2.92-.05-5.65-.66-8.18-2.08-3.34-1.87-5.45-4.73-6.26-8.42-.93-4.2.03-8.01,2.91-11.27,1.74-1.98,4.01-3.15,6.49-3.85,3.55-1,7.15-1,10.66.23,2.86,1,5.31,2.59,7,5.2,1.02,1.58,1.67,3.27,1.82,5.15.2,2.57.14,5.11-1.09,7.46-1.92,3.67-4.98,5.92-8.95,6.93-1.46.46-2.99.65-4.39.65Z"/>
    <path class="cls-1" d="m605.13,81.87c.11,2.6-.06,5.77-.71,8.9-1.01,4.88-3.38,8.97-7.07,12.3-1.96,1.77-4.39,2.63-6.91,3.04-3.03.49-6.06.24-8.98-.88-4.01-1.54-6.62-4.49-8.49-8.21-.67-1.33-1.13-2.73-1.47-4.19-1.64-6.98-1.38-13.91.6-20.77,1.08-3.75,3.04-7,6.05-9.54,2.52-2.13,5.48-3.2,8.75-3.39,1.77-.1,3.53-.07,5.28.34,5.9,1.39,9.57,5.2,11.66,10.71.89,2.34,1.28,4.78,1.29,7.28,0,1.27,0,2.55,0,4.42Z"/>
    <path class="cls-1" d="m520.53,74.23c-9.88,0-19.64,0-29.39,0-.11,0-.22-.15-.46-.31.2-1.69.66-3.38,1.25-5.03,1.15-3.25,2.95-6.1,5.5-8.46,2.49-2.3,5.35-3.62,8.8-3.58,1.99.02,3.96.14,5.85.81,3.9,1.39,6.26,4.25,7.51,8.08.81,2.5,1.16,5.1,1.18,7.73,0,.2-.12.39-.24.78Z"/>
  </g>
</svg>